<mxfile host="Electron" modified="2023-08-30T09:06:57.793Z" agent="Mozilla/5.0 (Windows NT 10.0; Win64; x64) AppleWebKit/537.36 (KHTML, like Gecko) draw.io/21.6.8 Chrome/114.0.5735.289 Electron/25.5.0 Safari/537.36" etag="fAvfv70F1BnZ-6Z7o4MC" version="21.6.8" type="device">
  <diagram name="Seite-1" id="IP58UousXiF4tvIA4HpZ">
    <mxGraphModel dx="1032" dy="603" grid="1" gridSize="10" guides="1" tooltips="1" connect="1" arrows="1" fold="1" page="1" pageScale="1" pageWidth="827" pageHeight="1169" math="0" shadow="0">
      <root>
        <mxCell id="0" />
        <mxCell id="1" parent="0" />
        <mxCell id="xAKTQtqkVo-7MEAtnJQO-44" value="" style="ellipse;whiteSpace=wrap;html=1;aspect=fixed;" parent="1" vertex="1">
          <mxGeometry x="155" y="115" width="190" height="190" as="geometry" />
        </mxCell>
        <mxCell id="xAKTQtqkVo-7MEAtnJQO-37" style="edgeStyle=orthogonalEdgeStyle;rounded=0;orthogonalLoop=1;jettySize=auto;html=1;" parent="1" source="xAKTQtqkVo-7MEAtnJQO-35" target="xAKTQtqkVo-7MEAtnJQO-36" edge="1">
          <mxGeometry relative="1" as="geometry">
            <mxPoint x="390" y="310" as="targetPoint" />
          </mxGeometry>
        </mxCell>
        <mxCell id="xAKTQtqkVo-7MEAtnJQO-35" value="Provider" style="ellipse;whiteSpace=wrap;html=1;aspect=fixed;fillColor=#DAE8FC;" parent="1" vertex="1">
          <mxGeometry x="285" y="235" width="60" height="60" as="geometry" />
        </mxCell>
        <mxCell id="xAKTQtqkVo-7MEAtnJQO-36" value="" style="shape=cylinder3;whiteSpace=wrap;html=1;boundedLbl=1;backgroundOutline=1;size=15;" parent="1" vertex="1">
          <mxGeometry x="399" y="240" width="30" height="50" as="geometry" />
        </mxCell>
        <mxCell id="xAKTQtqkVo-7MEAtnJQO-38" value="Domain" style="ellipse;whiteSpace=wrap;html=1;aspect=fixed;fillColor=#FFCCCC;" parent="1" vertex="1">
          <mxGeometry x="220" y="180" width="60" height="60" as="geometry" />
        </mxCell>
        <mxCell id="xAKTQtqkVo-7MEAtnJQO-39" value="Portal" style="ellipse;whiteSpace=wrap;html=1;aspect=fixed;fillColor=#66DF66;" parent="1" vertex="1">
          <mxGeometry x="285" y="110" width="60" height="60" as="geometry" />
        </mxCell>
        <mxCell id="xAKTQtqkVo-7MEAtnJQO-50" style="edgeStyle=orthogonalEdgeStyle;rounded=0;orthogonalLoop=1;jettySize=auto;html=1;startArrow=none;startFill=0;" parent="1" source="xAKTQtqkVo-7MEAtnJQO-40" target="xAKTQtqkVo-7MEAtnJQO-47" edge="1">
          <mxGeometry relative="1" as="geometry" />
        </mxCell>
        <mxCell id="xAKTQtqkVo-7MEAtnJQO-40" value="Actor" style="shape=umlActor;verticalLabelPosition=bottom;verticalAlign=top;html=1;outlineConnect=0;fontColor=#ffffff;" parent="1" vertex="1">
          <mxGeometry x="75" y="110" width="30" height="60" as="geometry" />
        </mxCell>
        <mxCell id="xAKTQtqkVo-7MEAtnJQO-46" style="edgeStyle=orthogonalEdgeStyle;rounded=0;orthogonalLoop=1;jettySize=auto;html=1;" parent="1" source="xAKTQtqkVo-7MEAtnJQO-43" target="xAKTQtqkVo-7MEAtnJQO-45" edge="1">
          <mxGeometry relative="1" as="geometry" />
        </mxCell>
        <mxCell id="xAKTQtqkVo-7MEAtnJQO-43" value="Provider" style="ellipse;whiteSpace=wrap;html=1;aspect=fixed;fillColor=#DAE8DC;" parent="1" vertex="1">
          <mxGeometry x="160" y="235" width="60" height="60" as="geometry" />
        </mxCell>
        <mxCell id="xAKTQtqkVo-7MEAtnJQO-45" value="" style="ellipse;shape=cloud;whiteSpace=wrap;html=1;" parent="1" vertex="1">
          <mxGeometry x="50" y="240" width="80" height="50" as="geometry" />
        </mxCell>
        <mxCell id="xAKTQtqkVo-7MEAtnJQO-47" value="Portal" style="ellipse;whiteSpace=wrap;html=1;aspect=fixed;fillColor=#66FF66;" parent="1" vertex="1">
          <mxGeometry x="160" y="110" width="60" height="60" as="geometry" />
        </mxCell>
        <mxCell id="xAKTQtqkVo-7MEAtnJQO-51" style="edgeStyle=orthogonalEdgeStyle;rounded=0;orthogonalLoop=1;jettySize=auto;html=1;startArrow=none;startFill=0;" parent="1" source="xAKTQtqkVo-7MEAtnJQO-48" target="xAKTQtqkVo-7MEAtnJQO-39" edge="1">
          <mxGeometry relative="1" as="geometry" />
        </mxCell>
        <mxCell id="xAKTQtqkVo-7MEAtnJQO-48" value="" style="ellipse;shape=cloud;whiteSpace=wrap;html=1;" parent="1" vertex="1">
          <mxGeometry x="374" y="115" width="80" height="50" as="geometry" />
        </mxCell>
      </root>
    </mxGraphModel>
  </diagram>
</mxfile>
